<mxfile host="app.diagrams.net" modified="2023-08-15T03:21:03.724Z" agent="Mozilla/5.0 (Macintosh; Intel Mac OS X 10_15_7) AppleWebKit/537.36 (KHTML, like Gecko) Chrome/115.0.0.0 Safari/537.36" version="21.6.5" etag="UmBRhXAhilMk25-jqzmJ" type="github">
  <diagram name="Page-1" id="UD5Lc8bh0d6R_xRd9I5y">
    <mxGraphModel>
      <root>
        <mxCell id="0" />
        <mxCell id="1" parent="0" />
      </root>
    </mxGraphModel>
  </diagram>
</mxfile>
